<mxfile host="Electron" modified="2024-01-30T04:02:19.548Z" agent="Mozilla/5.0 (X11; Linux x86_64) AppleWebKit/537.36 (KHTML, like Gecko) draw.io/22.1.21 Chrome/120.0.6099.109 Electron/28.1.0 Safari/537.36" etag="sZvrnE6vr8qFZ2rtaPbK" version="22.1.21" type="device">
  <diagram name="v0.1.0" id="IXx8jI_Lzb6XW_EAmS-O">
    <mxGraphModel dx="1050" dy="639" grid="1" gridSize="10" guides="1" tooltips="1" connect="1" arrows="1" fold="1" page="1" pageScale="1" pageWidth="850" pageHeight="1100" math="0" shadow="0">
      <root>
        <mxCell id="0" />
        <mxCell id="1" parent="0" />
        <mxCell id="bBc0MOjbAw6-MgNfNM8Z-1" value="" style="rounded=0;whiteSpace=wrap;html=1;fillColor=#f5f5f5;fontColor=#333333;strokeColor=#666666;" vertex="1" parent="1">
          <mxGeometry x="160" y="120" width="680" height="420" as="geometry" />
        </mxCell>
        <mxCell id="bBc0MOjbAw6-MgNfNM8Z-74" value="..." style="shape=process;whiteSpace=wrap;html=1;backgroundOutline=1;" vertex="1" parent="1">
          <mxGeometry x="700" y="330" width="120" height="60" as="geometry" />
        </mxCell>
        <mxCell id="bBc0MOjbAw6-MgNfNM8Z-64" value="" style="rounded=0;whiteSpace=wrap;html=1;fillColor=#fff2cc;strokeColor=#d6b656;" vertex="1" parent="1">
          <mxGeometry x="170" y="152" width="160" height="378" as="geometry" />
        </mxCell>
        <mxCell id="bBc0MOjbAw6-MgNfNM8Z-2" value="&lt;font style=&quot;font-size: 24px;&quot;&gt;LETC Matrix&lt;/font&gt;" style="text;html=1;strokeColor=none;fillColor=none;align=center;verticalAlign=middle;whiteSpace=wrap;rounded=0;" vertex="1" parent="1">
          <mxGeometry x="162" y="122" width="140" height="30" as="geometry" />
        </mxCell>
        <mxCell id="bBc0MOjbAw6-MgNfNM8Z-24" style="edgeStyle=orthogonalEdgeStyle;rounded=0;orthogonalLoop=1;jettySize=auto;html=1;exitX=1;exitY=0.5;exitDx=0;exitDy=0;entryX=0;entryY=0.5;entryDx=0;entryDy=0;fillColor=#d5e8d4;strokeColor=#82b366;" edge="1" parent="1" source="bBc0MOjbAw6-MgNfNM8Z-3" target="bBc0MOjbAw6-MgNfNM8Z-20">
          <mxGeometry relative="1" as="geometry">
            <mxPoint x="330.24" y="329.7700000000001" as="targetPoint" />
          </mxGeometry>
        </mxCell>
        <mxCell id="bBc0MOjbAw6-MgNfNM8Z-3" value="MAW FIFO" style="shape=process;whiteSpace=wrap;html=1;backgroundOutline=1;" vertex="1" parent="1">
          <mxGeometry x="190" y="300" width="120" height="60" as="geometry" />
        </mxCell>
        <mxCell id="bBc0MOjbAw6-MgNfNM8Z-6" value="MW FIFO" style="shape=process;whiteSpace=wrap;html=1;backgroundOutline=1;" vertex="1" parent="1">
          <mxGeometry x="190" y="370" width="120" height="60" as="geometry" />
        </mxCell>
        <mxCell id="bBc0MOjbAw6-MgNfNM8Z-7" value="MB FIFO" style="shape=process;whiteSpace=wrap;html=1;backgroundOutline=1;" vertex="1" parent="1">
          <mxGeometry x="190" y="440" width="120" height="60" as="geometry" />
        </mxCell>
        <mxCell id="bBc0MOjbAw6-MgNfNM8Z-8" value="MAR FIFO" style="shape=process;whiteSpace=wrap;html=1;backgroundOutline=1;" vertex="1" parent="1">
          <mxGeometry x="190" y="160" width="120" height="60" as="geometry" />
        </mxCell>
        <mxCell id="bBc0MOjbAw6-MgNfNM8Z-9" value="MR FIFO" style="shape=process;whiteSpace=wrap;html=1;backgroundOutline=1;" vertex="1" parent="1">
          <mxGeometry x="190" y="230" width="120" height="60" as="geometry" />
        </mxCell>
        <mxCell id="bBc0MOjbAw6-MgNfNM8Z-10" value="Manager" style="rounded=0;whiteSpace=wrap;html=1;" vertex="1" parent="1">
          <mxGeometry x="40" y="120" width="80" height="400" as="geometry" />
        </mxCell>
        <mxCell id="bBc0MOjbAw6-MgNfNM8Z-11" style="edgeStyle=orthogonalEdgeStyle;rounded=0;orthogonalLoop=1;jettySize=auto;html=1;exitX=0;exitY=0.5;exitDx=0;exitDy=0;entryX=1.002;entryY=0.174;entryDx=0;entryDy=0;entryPerimeter=0;startArrow=classic;startFill=1;endArrow=none;endFill=0;" edge="1" parent="1" source="bBc0MOjbAw6-MgNfNM8Z-8" target="bBc0MOjbAw6-MgNfNM8Z-10">
          <mxGeometry relative="1" as="geometry" />
        </mxCell>
        <mxCell id="bBc0MOjbAw6-MgNfNM8Z-12" value="AXI AR" style="edgeLabel;html=1;align=center;verticalAlign=middle;resizable=0;points=[];" vertex="1" connectable="0" parent="bBc0MOjbAw6-MgNfNM8Z-11">
          <mxGeometry x="0.2019" y="-1" relative="1" as="geometry">
            <mxPoint x="-8" y="-9" as="offset" />
          </mxGeometry>
        </mxCell>
        <mxCell id="bBc0MOjbAw6-MgNfNM8Z-13" style="edgeStyle=orthogonalEdgeStyle;rounded=0;orthogonalLoop=1;jettySize=auto;html=1;exitX=0;exitY=0.5;exitDx=0;exitDy=0;entryX=0.997;entryY=0.349;entryDx=0;entryDy=0;entryPerimeter=0;startArrow=none;startFill=0;endArrow=classic;endFill=1;fillColor=#dae8fc;strokeColor=#6c8ebf;" edge="1" parent="1" source="bBc0MOjbAw6-MgNfNM8Z-9" target="bBc0MOjbAw6-MgNfNM8Z-10">
          <mxGeometry relative="1" as="geometry" />
        </mxCell>
        <mxCell id="bBc0MOjbAw6-MgNfNM8Z-14" value="AXI R" style="edgeLabel;html=1;align=center;verticalAlign=middle;resizable=0;points=[];" vertex="1" connectable="0" parent="bBc0MOjbAw6-MgNfNM8Z-13">
          <mxGeometry x="0.3666" y="1" relative="1" as="geometry">
            <mxPoint x="-2" y="-14" as="offset" />
          </mxGeometry>
        </mxCell>
        <mxCell id="bBc0MOjbAw6-MgNfNM8Z-15" style="edgeStyle=orthogonalEdgeStyle;rounded=0;orthogonalLoop=1;jettySize=auto;html=1;exitX=0;exitY=0.5;exitDx=0;exitDy=0;entryX=0.979;entryY=0.349;entryDx=0;entryDy=0;entryPerimeter=0;startArrow=classic;startFill=1;endArrow=none;endFill=0;fillColor=#d5e8d4;strokeColor=#82b366;" edge="1" parent="1" source="bBc0MOjbAw6-MgNfNM8Z-3">
          <mxGeometry relative="1" as="geometry">
            <mxPoint x="192" y="329.89" as="sourcePoint" />
            <mxPoint x="120" y="329.89" as="targetPoint" />
          </mxGeometry>
        </mxCell>
        <mxCell id="bBc0MOjbAw6-MgNfNM8Z-16" value="AXI AW" style="edgeLabel;html=1;align=center;verticalAlign=middle;resizable=0;points=[];" vertex="1" connectable="0" parent="bBc0MOjbAw6-MgNfNM8Z-15">
          <mxGeometry x="0.3666" y="1" relative="1" as="geometry">
            <mxPoint x="-3" y="-11" as="offset" />
          </mxGeometry>
        </mxCell>
        <mxCell id="bBc0MOjbAw6-MgNfNM8Z-17" style="edgeStyle=orthogonalEdgeStyle;rounded=0;orthogonalLoop=1;jettySize=auto;html=1;exitX=0;exitY=0.5;exitDx=0;exitDy=0;entryX=0.979;entryY=0.349;entryDx=0;entryDy=0;entryPerimeter=0;startArrow=classic;startFill=1;endArrow=none;endFill=0;fillColor=#ffe6cc;strokeColor=#d79b00;" edge="1" parent="1">
          <mxGeometry relative="1" as="geometry">
            <mxPoint x="190" y="399.8" as="sourcePoint" />
            <mxPoint x="120" y="399.69" as="targetPoint" />
          </mxGeometry>
        </mxCell>
        <mxCell id="bBc0MOjbAw6-MgNfNM8Z-18" value="AXI W" style="edgeLabel;html=1;align=center;verticalAlign=middle;resizable=0;points=[];" vertex="1" connectable="0" parent="bBc0MOjbAw6-MgNfNM8Z-17">
          <mxGeometry x="0.3666" y="1" relative="1" as="geometry">
            <mxPoint x="-2" y="-11" as="offset" />
          </mxGeometry>
        </mxCell>
        <mxCell id="bBc0MOjbAw6-MgNfNM8Z-19" style="edgeStyle=orthogonalEdgeStyle;rounded=0;orthogonalLoop=1;jettySize=auto;html=1;exitX=0;exitY=0.5;exitDx=0;exitDy=0;entryX=1.007;entryY=0.875;entryDx=0;entryDy=0;entryPerimeter=0;fillColor=#f8cecc;strokeColor=#b85450;" edge="1" parent="1" source="bBc0MOjbAw6-MgNfNM8Z-7" target="bBc0MOjbAw6-MgNfNM8Z-10">
          <mxGeometry relative="1" as="geometry" />
        </mxCell>
        <mxCell id="bBc0MOjbAw6-MgNfNM8Z-80" value="AXI B" style="edgeLabel;html=1;align=center;verticalAlign=middle;resizable=0;points=[];" vertex="1" connectable="0" parent="bBc0MOjbAw6-MgNfNM8Z-19">
          <mxGeometry x="0.4316" y="3" relative="1" as="geometry">
            <mxPoint y="-15" as="offset" />
          </mxGeometry>
        </mxCell>
        <mxCell id="bBc0MOjbAw6-MgNfNM8Z-20" value="Routing Logic&lt;br&gt;(Combinational)&lt;br&gt;&lt;br&gt;May be fair (round robin) or unfair&lt;br&gt;&lt;br&gt;Only needs to support one transaction in flight at once" style="rounded=0;whiteSpace=wrap;html=1;" vertex="1" parent="1">
          <mxGeometry x="350" y="160" width="120" height="340" as="geometry" />
        </mxCell>
        <mxCell id="bBc0MOjbAw6-MgNfNM8Z-21" value="Default&lt;br&gt;Subordinate&lt;br&gt;(For DECERRs)" style="rounded=0;whiteSpace=wrap;html=1;" vertex="1" parent="1">
          <mxGeometry x="700" y="160" width="120" height="60" as="geometry" />
        </mxCell>
        <mxCell id="bBc0MOjbAw6-MgNfNM8Z-25" style="edgeStyle=orthogonalEdgeStyle;rounded=0;orthogonalLoop=1;jettySize=auto;html=1;exitX=1;exitY=0.5;exitDx=0;exitDy=0;entryX=-0.007;entryY=0.707;entryDx=0;entryDy=0;entryPerimeter=0;fillColor=#ffe6cc;strokeColor=#d79b00;" edge="1" parent="1" source="bBc0MOjbAw6-MgNfNM8Z-6" target="bBc0MOjbAw6-MgNfNM8Z-20">
          <mxGeometry relative="1" as="geometry">
            <mxPoint x="329.64" y="399.84000000000003" as="targetPoint" />
          </mxGeometry>
        </mxCell>
        <mxCell id="bBc0MOjbAw6-MgNfNM8Z-44" style="edgeStyle=orthogonalEdgeStyle;rounded=0;orthogonalLoop=1;jettySize=auto;html=1;exitX=-0.004;exitY=0.294;exitDx=0;exitDy=0;entryX=1;entryY=0.5;entryDx=0;entryDy=0;fillColor=#dae8fc;strokeColor=#6c8ebf;exitPerimeter=0;" edge="1" parent="1" source="bBc0MOjbAw6-MgNfNM8Z-20" target="bBc0MOjbAw6-MgNfNM8Z-9">
          <mxGeometry relative="1" as="geometry">
            <mxPoint x="330" y="260" as="sourcePoint" />
          </mxGeometry>
        </mxCell>
        <mxCell id="bBc0MOjbAw6-MgNfNM8Z-53" style="edgeStyle=orthogonalEdgeStyle;rounded=0;orthogonalLoop=1;jettySize=auto;html=1;exitX=1;exitY=0.5;exitDx=0;exitDy=0;startArrow=classic;startFill=1;fillColor=#e1d5e7;strokeColor=#9673a6;" edge="1" parent="1" source="bBc0MOjbAw6-MgNfNM8Z-30" target="bBc0MOjbAw6-MgNfNM8Z-42">
          <mxGeometry relative="1" as="geometry" />
        </mxCell>
        <mxCell id="bBc0MOjbAw6-MgNfNM8Z-54" value="AXI" style="edgeLabel;html=1;align=center;verticalAlign=middle;resizable=0;points=[];" vertex="1" connectable="0" parent="bBc0MOjbAw6-MgNfNM8Z-53">
          <mxGeometry x="0.3951" y="-1" relative="1" as="geometry">
            <mxPoint x="-11" y="-11" as="offset" />
          </mxGeometry>
        </mxCell>
        <mxCell id="bBc0MOjbAw6-MgNfNM8Z-30" value="S1 FIFOs&lt;br&gt;(Like M FIFOs)" style="shape=process;whiteSpace=wrap;html=1;backgroundOutline=1;" vertex="1" parent="1">
          <mxGeometry x="700" y="240" width="120" height="60" as="geometry" />
        </mxCell>
        <mxCell id="bBc0MOjbAw6-MgNfNM8Z-56" style="edgeStyle=orthogonalEdgeStyle;rounded=0;orthogonalLoop=1;jettySize=auto;html=1;exitX=1;exitY=0.5;exitDx=0;exitDy=0;entryX=0;entryY=0.5;entryDx=0;entryDy=0;startArrow=classic;startFill=1;fillColor=#e1d5e7;strokeColor=#9673a6;" edge="1" parent="1" source="bBc0MOjbAw6-MgNfNM8Z-31" target="bBc0MOjbAw6-MgNfNM8Z-55">
          <mxGeometry relative="1" as="geometry" />
        </mxCell>
        <mxCell id="bBc0MOjbAw6-MgNfNM8Z-57" value="AXI" style="edgeLabel;html=1;align=center;verticalAlign=middle;resizable=0;points=[];" vertex="1" connectable="0" parent="bBc0MOjbAw6-MgNfNM8Z-56">
          <mxGeometry x="0.3747" y="1" relative="1" as="geometry">
            <mxPoint x="-10" y="-9" as="offset" />
          </mxGeometry>
        </mxCell>
        <mxCell id="bBc0MOjbAw6-MgNfNM8Z-31" value="Sn FIFOs&lt;br&gt;(Like M FIFOs)" style="shape=process;whiteSpace=wrap;html=1;backgroundOutline=1;" vertex="1" parent="1">
          <mxGeometry x="700" y="410" width="120" height="60" as="geometry" />
        </mxCell>
        <mxCell id="bBc0MOjbAw6-MgNfNM8Z-40" style="edgeStyle=orthogonalEdgeStyle;rounded=0;orthogonalLoop=1;jettySize=auto;html=1;exitX=1;exitY=0.5;exitDx=0;exitDy=0;entryX=0;entryY=0.5;entryDx=0;entryDy=0;startArrow=classic;startFill=1;fillColor=#e1d5e7;strokeColor=#9673a6;" edge="1" parent="1" source="bBc0MOjbAw6-MgNfNM8Z-36" target="bBc0MOjbAw6-MgNfNM8Z-21">
          <mxGeometry relative="1" as="geometry" />
        </mxCell>
        <mxCell id="bBc0MOjbAw6-MgNfNM8Z-43" value="AXI" style="edgeLabel;html=1;align=center;verticalAlign=middle;resizable=0;points=[];" vertex="1" connectable="0" parent="bBc0MOjbAw6-MgNfNM8Z-40">
          <mxGeometry x="-0.0667" y="3" relative="1" as="geometry">
            <mxPoint y="-9" as="offset" />
          </mxGeometry>
        </mxCell>
        <mxCell id="bBc0MOjbAw6-MgNfNM8Z-36" value="S0 FIFOs&lt;br&gt;(Like M FIFOs)" style="shape=process;whiteSpace=wrap;html=1;backgroundOutline=1;" vertex="1" parent="1">
          <mxGeometry x="550" y="160" width="120" height="60" as="geometry" />
        </mxCell>
        <mxCell id="bBc0MOjbAw6-MgNfNM8Z-42" value="Subordinate 1" style="rounded=0;whiteSpace=wrap;html=1;" vertex="1" parent="1">
          <mxGeometry x="880" y="240" width="120" height="60" as="geometry" />
        </mxCell>
        <mxCell id="bBc0MOjbAw6-MgNfNM8Z-48" style="edgeStyle=orthogonalEdgeStyle;rounded=0;orthogonalLoop=1;jettySize=auto;html=1;exitX=1;exitY=0.5;exitDx=0;exitDy=0;entryX=-0.003;entryY=0.768;entryDx=0;entryDy=0;entryPerimeter=0;fillColor=#f8cecc;strokeColor=#b85450;startArrow=classic;startFill=1;endArrow=none;endFill=0;" edge="1" parent="1" source="bBc0MOjbAw6-MgNfNM8Z-7">
          <mxGeometry relative="1" as="geometry">
            <mxPoint x="330.36" y="470.15999999999997" as="sourcePoint" />
            <mxPoint x="350" y="470" as="targetPoint" />
          </mxGeometry>
        </mxCell>
        <mxCell id="bBc0MOjbAw6-MgNfNM8Z-50" value="Two Cycles of Latency" style="text;html=1;strokeColor=none;fillColor=none;align=center;verticalAlign=middle;whiteSpace=wrap;rounded=0;" vertex="1" parent="1">
          <mxGeometry x="425" y="122" width="135" height="30" as="geometry" />
        </mxCell>
        <mxCell id="bBc0MOjbAw6-MgNfNM8Z-55" value="Subordinate n" style="rounded=0;whiteSpace=wrap;html=1;" vertex="1" parent="1">
          <mxGeometry x="880" y="410" width="120" height="60" as="geometry" />
        </mxCell>
        <mxCell id="bBc0MOjbAw6-MgNfNM8Z-58" style="edgeStyle=orthogonalEdgeStyle;rounded=0;orthogonalLoop=1;jettySize=auto;html=1;exitX=0.999;exitY=0.087;exitDx=0;exitDy=0;startArrow=classic;startFill=1;fillColor=#e1d5e7;strokeColor=#9673a6;exitPerimeter=0;" edge="1" parent="1" source="bBc0MOjbAw6-MgNfNM8Z-20">
          <mxGeometry relative="1" as="geometry">
            <mxPoint x="480" y="189.66" as="sourcePoint" />
            <mxPoint x="550" y="189.66" as="targetPoint" />
          </mxGeometry>
        </mxCell>
        <mxCell id="bBc0MOjbAw6-MgNfNM8Z-59" value="AXI" style="edgeLabel;html=1;align=center;verticalAlign=middle;resizable=0;points=[];" vertex="1" connectable="0" parent="bBc0MOjbAw6-MgNfNM8Z-58">
          <mxGeometry x="0.3951" y="-1" relative="1" as="geometry">
            <mxPoint x="-15" y="-11" as="offset" />
          </mxGeometry>
        </mxCell>
        <mxCell id="bBc0MOjbAw6-MgNfNM8Z-62" style="edgeStyle=orthogonalEdgeStyle;rounded=0;orthogonalLoop=1;jettySize=auto;html=1;exitX=0.998;exitY=0.325;exitDx=0;exitDy=0;entryX=0;entryY=0.5;entryDx=0;entryDy=0;startArrow=classic;startFill=1;fillColor=#e1d5e7;strokeColor=#9673a6;exitPerimeter=0;" edge="1" parent="1" source="bBc0MOjbAw6-MgNfNM8Z-20">
          <mxGeometry relative="1" as="geometry">
            <mxPoint x="670" y="269.8" as="sourcePoint" />
            <mxPoint x="700" y="269.8" as="targetPoint" />
          </mxGeometry>
        </mxCell>
        <mxCell id="bBc0MOjbAw6-MgNfNM8Z-63" value="AXI" style="edgeLabel;html=1;align=center;verticalAlign=middle;resizable=0;points=[];" vertex="1" connectable="0" parent="bBc0MOjbAw6-MgNfNM8Z-62">
          <mxGeometry x="-0.0667" y="3" relative="1" as="geometry">
            <mxPoint x="13" y="-7" as="offset" />
          </mxGeometry>
        </mxCell>
        <mxCell id="bBc0MOjbAw6-MgNfNM8Z-65" value="M FIFOs" style="text;html=1;strokeColor=none;fillColor=none;align=center;verticalAlign=middle;whiteSpace=wrap;rounded=0;" vertex="1" parent="1">
          <mxGeometry x="220" y="500" width="60" height="30" as="geometry" />
        </mxCell>
        <mxCell id="bBc0MOjbAw6-MgNfNM8Z-70" style="edgeStyle=orthogonalEdgeStyle;rounded=0;orthogonalLoop=1;jettySize=auto;html=1;exitX=1;exitY=0.822;exitDx=0;exitDy=0;startArrow=classic;startFill=1;fillColor=#e1d5e7;strokeColor=#9673a6;exitPerimeter=0;" edge="1" parent="1" source="bBc0MOjbAw6-MgNfNM8Z-20">
          <mxGeometry relative="1" as="geometry">
            <mxPoint x="630" y="439.58000000000004" as="sourcePoint" />
            <mxPoint x="700" y="439.58000000000004" as="targetPoint" />
            <Array as="points">
              <mxPoint x="575" y="440" />
            </Array>
          </mxGeometry>
        </mxCell>
        <mxCell id="bBc0MOjbAw6-MgNfNM8Z-71" value="AXI" style="edgeLabel;html=1;align=center;verticalAlign=middle;resizable=0;points=[];" vertex="1" connectable="0" parent="bBc0MOjbAw6-MgNfNM8Z-70">
          <mxGeometry x="0.3951" y="-1" relative="1" as="geometry">
            <mxPoint x="-41" y="-11" as="offset" />
          </mxGeometry>
        </mxCell>
        <mxCell id="bBc0MOjbAw6-MgNfNM8Z-72" style="edgeStyle=orthogonalEdgeStyle;rounded=0;orthogonalLoop=1;jettySize=auto;html=1;startArrow=classic;startFill=1;fillColor=#e1d5e7;strokeColor=#9673a6;" edge="1" parent="1">
          <mxGeometry relative="1" as="geometry">
            <mxPoint x="470" y="360" as="sourcePoint" />
            <mxPoint x="700" y="360.58000000000004" as="targetPoint" />
            <Array as="points">
              <mxPoint x="575" y="361" />
            </Array>
          </mxGeometry>
        </mxCell>
        <mxCell id="bBc0MOjbAw6-MgNfNM8Z-73" value="AXI" style="edgeLabel;html=1;align=center;verticalAlign=middle;resizable=0;points=[];" vertex="1" connectable="0" parent="bBc0MOjbAw6-MgNfNM8Z-72">
          <mxGeometry x="0.3951" y="-1" relative="1" as="geometry">
            <mxPoint x="-41" y="-11" as="offset" />
          </mxGeometry>
        </mxCell>
        <mxCell id="bBc0MOjbAw6-MgNfNM8Z-75" style="edgeStyle=orthogonalEdgeStyle;rounded=0;orthogonalLoop=1;jettySize=auto;html=1;exitX=1;exitY=0.5;exitDx=0;exitDy=0;startArrow=classic;startFill=1;fillColor=#e1d5e7;strokeColor=#9673a6;" edge="1" parent="1" target="bBc0MOjbAw6-MgNfNM8Z-77">
          <mxGeometry relative="1" as="geometry">
            <mxPoint x="820" y="360" as="sourcePoint" />
          </mxGeometry>
        </mxCell>
        <mxCell id="bBc0MOjbAw6-MgNfNM8Z-76" value="AXI" style="edgeLabel;html=1;align=center;verticalAlign=middle;resizable=0;points=[];" vertex="1" connectable="0" parent="bBc0MOjbAw6-MgNfNM8Z-75">
          <mxGeometry x="0.3951" y="-1" relative="1" as="geometry">
            <mxPoint x="-11" y="-11" as="offset" />
          </mxGeometry>
        </mxCell>
        <mxCell id="bBc0MOjbAw6-MgNfNM8Z-77" value="..." style="rounded=0;whiteSpace=wrap;html=1;" vertex="1" parent="1">
          <mxGeometry x="880" y="330" width="120" height="60" as="geometry" />
        </mxCell>
        <mxCell id="bBc0MOjbAw6-MgNfNM8Z-78" style="edgeStyle=orthogonalEdgeStyle;rounded=0;orthogonalLoop=1;jettySize=auto;html=1;exitX=1;exitY=0.5;exitDx=0;exitDy=0;entryX=0;entryY=0.088;entryDx=0;entryDy=0;entryPerimeter=0;" edge="1" parent="1" source="bBc0MOjbAw6-MgNfNM8Z-8" target="bBc0MOjbAw6-MgNfNM8Z-20">
          <mxGeometry relative="1" as="geometry" />
        </mxCell>
        <mxCell id="bBc0MOjbAw6-MgNfNM8Z-79" value="TODO can we reduce latency by eliminating the FIFOs, assuming the Manager and Subordinates will have FIFOs of their own?" style="shape=note;whiteSpace=wrap;html=1;backgroundOutline=1;fontColor=#000000;darkOpacity=0.05;fillColor=#FFF9B2;strokeColor=none;fillStyle=solid;direction=west;gradientDirection=north;gradientColor=#FFF2A1;shadow=1;size=20;pointerEvents=1;" vertex="1" parent="1">
          <mxGeometry x="490" y="480" width="330" height="50" as="geometry" />
        </mxCell>
      </root>
    </mxGraphModel>
  </diagram>
</mxfile>
